<svg width="188" height="50" viewBox="0 0 188 50" fill="none" xmlns="http://www.w3.org/2000/svg">
<path d="M0.598726 49.5L0 50L188 49.9204L187.401 49.4204L186.803 48.9205L186.204 48.4206L185.605 47.921L185.006 47.4215L184.408 46.9223L183.809 46.4234L183.21 45.9249L182.611 45.4268L182.013 44.9291L181.414 44.4319L180.815 43.9353L180.217 43.4393L179.618 42.944L179.019 42.4494L178.42 41.9555L177.822 41.4624L177.223 40.9702L176.624 40.4789L176.025 39.9885L175.427 39.4991L174.828 39.0108L174.229 38.5236L173.631 38.0375L173.032 37.5527L172.433 37.069L171.834 36.5867L171.236 36.1057L170.637 35.6261L170.038 35.1479L169.439 34.6712L168.841 34.1961L168.242 33.7225L167.643 33.2506L167.045 32.7803L166.446 32.3118L165.847 31.845L165.248 31.38L164.65 30.9169L164.051 30.4558L163.452 29.9965L162.854 29.5393L162.255 29.0841L161.656 28.631L161.057 28.18L160.459 27.7313L159.86 27.2847L159.261 26.8404L158.662 26.3985L158.064 25.9589L157.465 25.5217L156.866 25.0869L156.268 24.6546L155.669 24.2249L155.07 23.7978L154.471 23.3732L153.873 22.9514L153.274 22.5322L152.675 22.1158L152.076 21.7022L151.478 21.2914L150.879 20.8835L150.28 20.4784L149.682 20.0764L149.083 19.6773L148.484 19.2813L147.885 18.8883L147.287 18.4985L146.688 18.1118L146.089 17.7282L145.49 17.348L144.892 16.9709L144.293 16.5972L143.694 16.2268L143.096 15.8598L142.497 15.4962L141.898 15.1361L141.299 14.7795L140.701 14.4263L140.102 14.0767L139.503 13.7308L138.904 13.3884L138.306 13.0497L137.707 12.7147L137.108 12.3835L136.51 12.056L135.911 11.7322L135.312 11.4124L134.713 11.0963L134.115 10.7842L133.516 10.476L132.917 10.1717L132.318 9.87143L131.72 9.57517L131.121 9.28294L130.522 8.99479L129.924 8.71074L129.325 8.43082L128.726 8.15505L128.127 7.88346L127.529 7.6161L126.93 7.35297L126.331 7.09409L125.732 6.83952L125.134 6.58926L124.535 6.34334L123.936 6.10179L123.338 5.86462L122.739 5.63187L122.14 5.40355L121.541 5.1797L120.943 4.96033L120.344 4.74546L119.745 4.53511L119.146 4.32932L118.548 4.12809L117.949 3.93145L117.35 3.73941L116.752 3.552L116.153 3.36924L115.554 3.19113L114.955 3.01771L114.357 2.84899L113.758 2.68498L113.159 2.52571L112.561 2.37118L111.962 2.22141L111.363 2.07642L110.764 1.93623L110.166 1.80084L109.567 1.67027L108.968 1.54453L108.369 1.42364L107.771 1.3076L107.172 1.19644L106.573 1.09016L105.975 0.988762L105.376 0.892273L104.777 0.80069L104.178 0.714027L103.58 0.632298L102.981 0.555496L102.382 0.483646L101.783 0.416748L101.185 0.354805L100.586 0.297829L99.9873 0.245819L99.3885 0.198784L98.7898 0.156738L98.1911 0.119667L97.5924 0.0875854L96.9936 0.0604973L96.3949 0.0384064L95.7962 0.0213051L95.1974 0.00920486L94.5987 0.0021019L94 0L93.4013 0.00289917L92.8025 0.0107956L92.2038 0.0236931L91.6051 0.0415916L91.0064 0.0644798L90.4076 0.0923653L89.8089 0.125237L89.2102 0.163097L88.6115 0.20594L88.0127 0.253769L87.414 0.306568L86.8153 0.364338L86.2166 0.427071L85.6178 0.494759L85.0191 0.567398L84.4204 0.644981L83.8217 0.727501L83.2229 0.814945L82.6242 0.90731L82.0255 1.00458L81.4268 1.10675L80.828 1.21382L80.2293 1.32576L79.6306 1.44257L79.0318 1.56423L78.4331 1.69073L77.8344 1.82207L77.2357 1.95823L76.6369 2.09919L76.0382 2.24495L75.4395 2.39547L74.8408 2.55075L74.242 2.71078L73.6433 2.87555L73.0446 3.04502L72.4459 3.21918L71.8471 3.39803L71.2484 3.58154L70.6497 3.76968L70.051 3.96246L69.4522 4.15983L68.8535 4.36179L68.2548 4.56831L67.6561 4.77938L67.0573 4.99496L66.4586 5.21505L65.8599 5.43962L65.2611 5.66864L64.6624 5.9021L64.0637 6.13996L63.465 6.38221L62.8662 6.62883L62.2675 6.87978L61.6688 7.13504L61.0701 7.39459L60.4713 7.6584L59.8726 7.92644L59.2739 8.19869L58.6752 8.47512L58.0764 8.7557L57.4777 9.04041L56.879 9.32921L56.2803 9.62209L55.6815 9.91899L55.0828 10.2199L54.4841 10.5248L53.8853 10.8336L53.2866 11.1464L52.6879 11.463L52.0892 11.7835L51.4904 12.1079L50.8917 12.436L50.293 12.7678L49.6943 13.1034L49.0955 13.4427L48.4968 13.7856L47.8981 14.1322L47.2994 14.4823L46.7006 14.836L46.1019 15.1932L45.5032 15.5539L44.9045 15.9181L44.3057 16.2856L43.707 16.6565L43.1083 17.0308L42.5096 17.4083L41.9108 17.7891L41.3121 18.1731L40.7134 18.5603L40.1146 18.9507L39.5159 19.3441L38.9172 19.7407L38.3185 20.1402L37.7197 20.5428L37.121 20.9482L36.5223 21.3566L35.9236 21.7679L35.3248 22.1819L34.7261 22.5988L34.1274 23.0184L33.5287 23.4407L32.9299 23.8656L32.3312 24.2932L31.7325 24.7233L31.1338 25.156L30.535 25.5911L29.9363 26.0287L29.3376 26.4687L28.7389 26.911L28.1401 27.3557L27.5414 27.8026L26.9427 28.2517L26.3439 28.703L25.7452 29.1565L25.1465 29.612L24.5478 30.0695L23.949 30.5291L23.3503 30.9906L22.7516 31.454L22.1529 31.9192L21.5541 32.3863L20.9554 32.8551L20.3567 33.3256L19.758 33.7978L19.1592 34.2717L18.5605 34.7471L17.9618 35.224L17.3631 35.7024L16.7643 36.1822L16.1656 36.6634L15.5669 37.146L14.9682 37.6298L14.3694 38.1149L13.7707 38.6011L13.172 39.0885L12.5732 39.577L11.9745 40.0665L11.3758 40.5571L10.7771 41.0485L10.1783 41.5409L9.57962 42.0341L8.98089 42.5281L8.38216 43.0228L7.78344 43.5183L7.18471 44.0144L6.58599 44.5111L5.98726 45.0083L5.38854 45.5061L4.78981 46.0043L4.19108 46.5029L3.59236 47.0018L2.99363 47.501L2.3949 48.0005L1.79618 48.5002L1.19745 49.0001L0.598726 49.5Z" fill="#7CC9F2"/>
</svg>
