<svg width="17" height="17" viewBox="0 0 17 17" fill="none" xmlns="http://www.w3.org/2000/svg">
<path d="M7.55554 0.944485C7.55554 0.944485 7.55554 4.07696e-05 8.49999 4.07696e-05C9.44443 4.07696e-05 9.44443 0.944485 9.44443 0.944485V1.88893C9.44443 1.88893 9.44443 2.83337 8.49999 2.83337C7.55554 2.83337 7.55554 1.88893 7.55554 1.88893V0.944485Z" fill="#FFAC33"/>
<path d="M16.0556 7.55557C16.0556 7.55557 17 7.55557 17 8.50001C17 9.44446 16.0556 9.44446 16.0556 9.44446H15.1111C15.1111 9.44446 14.1667 9.44446 14.1667 8.50001C14.1667 7.55557 15.1111 7.55557 15.1111 7.55557H16.0556Z" fill="#FFAC33"/>
<path d="M1.88889 7.55557C1.88889 7.55557 2.83333 7.55557 2.83333 8.50001C2.83333 9.44446 1.88889 9.44446 1.88889 9.44446H0.944444C0.944444 9.44446 0 9.44446 0 8.50001C0 7.55557 0.944444 7.55557 0.944444 7.55557H1.88889Z" fill="#FFAC33"/>
<path d="M4.30712 3.44445C4.30712 3.44445 4.97484 4.11217 4.30712 4.77989C3.6394 5.44762 2.97167 4.77989 2.97167 4.77989L2.30348 4.11217C2.30348 4.11217 1.63576 3.44445 2.30348 2.77626C2.97167 2.10853 3.6394 2.77626 3.6394 2.77626L4.30712 3.44445Z" fill="#FFAC33"/>
<path d="M14.2238 13.3606C14.2238 13.3606 14.8915 14.0283 14.2238 14.696C13.5561 15.3638 12.8884 14.696 12.8884 14.696L12.2207 14.0283C12.2207 14.0283 11.5529 13.3606 12.2207 12.6929C12.8884 12.0251 13.5561 12.6929 13.5561 12.6929L14.2238 13.3606Z" fill="#FFAC33"/>
<path d="M14.0288 4.77941C14.0288 4.77941 13.361 5.44713 12.6933 4.77941C12.0256 4.11168 12.6933 3.44396 12.6933 3.44396L13.361 2.77624C13.361 2.77624 14.0288 2.10852 14.6965 2.77624C15.3642 3.44396 14.6965 4.11168 14.6965 4.11168L14.0288 4.77941Z" fill="#FFAC33"/>
<path d="M4.11213 14.696C4.11213 14.696 3.44441 15.3638 2.77668 14.696C2.10896 14.0283 2.77668 13.3606 2.77668 13.3606L3.44441 12.6929C3.44441 12.6929 4.11213 12.0251 4.77985 12.6929C5.44757 13.3606 4.77985 14.0283 4.77985 14.0283L4.11213 14.696Z" fill="#FFAC33"/>
<path d="M7.55554 15.1111C7.55554 15.1111 7.55554 14.1667 8.49999 14.1667C9.44443 14.1667 9.44443 15.1111 9.44443 15.1111V16.0556C9.44443 16.0556 9.44443 17 8.49999 17C7.55554 17 7.55554 16.0556 7.55554 16.0556V15.1111Z" fill="#FFAC33"/>
<path d="M13.2222 8.49995C13.2222 5.89186 11.1076 3.77772 8.49999 3.77772C5.89191 3.77772 3.77777 5.89186 3.77777 8.49995C3.77777 11.1076 5.89191 13.2222 8.49999 13.2222C11.1076 13.2222 13.2222 11.1076 13.2222 8.49995Z" fill="#FFAC33"/>
</svg>
