<svg width="49" height="23" viewBox="0 0 49 23" fill="none" xmlns="http://www.w3.org/2000/svg">
<path d="M0.312102 0.459989L0 0L49 0.0366326L48.6879 0.496613L48.3758 0.956396L48.0637 1.4158L47.7516 1.87463L47.4395 2.33271L47.1274 2.78986L46.8153 3.2459L46.5032 3.70063L46.1911 4.15389L45.879 4.60548L45.5669 5.05524L45.2548 5.50297L44.9427 5.9485L44.6306 6.39165L44.3185 6.83224L44.0064 7.2701L43.6943 7.70505L43.3822 8.13692L43.0701 8.56554L42.758 8.99073L42.4459 9.41232L42.1338 9.83015L41.8217 10.244L41.5096 10.6538L41.1975 11.0594L40.8853 11.4605L40.5732 11.857L40.2611 12.2488L39.949 12.6357L39.6369 13.0175L39.3248 13.3942L39.0127 13.7654L38.7006 14.1312L38.3885 14.4913L38.0764 14.8456L37.7643 15.194L37.4522 15.5363L37.1401 15.8724L36.828 16.2021L36.5159 16.5254L36.2038 16.842L35.8917 17.1519L35.5796 17.455L35.2675 17.7511L34.9554 18.04L34.6433 18.3218L34.3312 18.5962L34.0191 18.8632L33.707 19.1226L33.3949 19.3744L33.0828 19.6185L32.7707 19.8547L32.4586 20.0829L32.1465 20.3031L31.8344 20.5152L31.5223 20.7191L31.2102 20.9147L30.8981 21.102L30.586 21.2808L30.2739 21.4511L29.9618 21.6128L29.6497 21.7658L29.3376 21.9102L29.0255 22.0458L28.7134 22.1725L28.4013 22.2905L28.0892 22.3994L27.7771 22.4995L27.465 22.5905L27.1529 22.6725L26.8408 22.7454L26.5287 22.8093L26.2166 22.864L25.9045 22.9095L25.5924 22.9459L25.2803 22.9731L24.9682 22.9912L24.6561 23L24.3439 22.9996L24.0318 22.9901L23.7197 22.9713L23.4076 22.9434L23.0955 22.9062L22.7834 22.8599L22.4713 22.8045L22.1592 22.74L21.8471 22.6663L21.535 22.5836L21.2229 22.4918L20.9108 22.3911L20.5987 22.2814L20.2866 22.1628L19.9745 22.0353L19.6624 21.899L19.3503 21.754L19.0382 21.6002L18.7261 21.4378L18.414 21.2668L18.1019 21.0874L17.7898 20.8995L17.4777 20.7032L17.1656 20.4986L16.8535 20.2859L16.5414 20.065L16.2293 19.8361L15.9172 19.5993L15.6051 19.3547L15.293 19.1022L14.9809 18.8422L14.6688 18.5746L14.3567 18.2996L14.0446 18.0173L13.7325 17.7277L13.4204 17.4311L13.1083 17.1275L12.7962 16.8171L12.4841 16.4999L12.172 16.1761L11.8599 15.8459L11.5478 15.5093L11.2357 15.1665L10.9236 14.8176L10.6115 14.4629L10.2994 14.1023L9.98726 13.7361L9.67516 13.3644L9.36306 12.9873L9.05096 12.6051L8.73885 12.2178L8.42675 11.8256L8.11465 11.4287L7.80255 11.0273L7.49045 10.6214L7.17834 10.2112L6.86624 9.79702L6.55414 9.37889L6.24204 8.957L5.92994 8.53153L5.61783 8.10265L5.30573 7.67053L4.99363 7.23534L4.68153 6.79725L4.36943 6.35645L4.05732 5.9131L3.74522 5.46739L3.43312 5.01949L3.12102 4.56959L2.80892 4.11785L2.49682 3.66447L2.18471 3.20963L1.87261 2.7535L1.56051 2.29627L1.24841 1.83812L0.936306 1.37923L0.624204 0.919794L0.312102 0.459989Z" fill="#001F70"/>
</svg>
